<svg width="43" height="71" viewBox="0 0 43 71" fill="none" xmlns="http://www.w3.org/2000/svg"><path d="M26.31 32.287h0L1.605 9.543s0 0 0 0C.825 8.79.761 7.68 1.165 6.47c.402-1.21 1.271-2.51 2.338-3.622C4.57 1.736 5.83.816 7.015.36c1.185-.457 2.28-.445 3.033.283h0l32.137 31c.946.914.953 2.313.363 3.825-.589 1.51-1.768 3.117-3.167 4.421h0L8.178 69.73h0a1.652 1.652 0 01-1.23.491c-.45-.012-.932-.187-1.423-.489-.983-.605-1.987-1.714-2.807-3.008-.82-1.293-1.452-2.765-1.692-4.091-.24-1.33-.087-2.5.645-3.206h0L26.31 35.59l.002-.002c.416-.402.73-.707.942-.961.21-.255.325-.469.325-.689 0-.22-.114-.433-.325-.688-.211-.255-.526-.56-.942-.961l-.003-.003z" fill="#E4002B" stroke="#E4002B" stroke-width=".099"/></svg>