<svg width="16" height="10" viewBox="0 0 16 10" fill="none" xmlns="http://www.w3.org/2000/svg"><path d="M7.37 6.196h0L2.342.733s0 0 0 0C2.175.56 1.929.546 1.661.635c-.267.09-.555.282-.8.518-.247.235-.45.514-.551.776-.101.262-.098.504.062.67h0l6.856 7.108c.202.21.512.21.846.08.334-.13.69-.39.978-.7h0l6.6-6.9h0a.365.365 0 00.108-.273.647.647 0 00-.108-.315c-.134-.217-.38-.439-.665-.62a2.655 2.655 0 00-.905-.374c-.294-.054-.553-.02-.71.142h0l-5.27 5.45h0c-.09.092-.157.162-.213.208-.057.047-.104.072-.153.072-.048 0-.096-.025-.152-.072a2.94 2.94 0 01-.213-.208h0z" fill="#E4002B" stroke="#222025" stroke-width=".022"/></svg>