<svg width="235" height="56" viewBox="0 0 235 56" fill="none" xmlns="http://www.w3.org/2000/svg"><g clip-path="url(#clip0_220_16699)" fill="#E4002B"><path d="M41.192 38.282C32.88 52.678 18.148 59.734 8.288 54.042c-9.86-5.693-11.115-21.979-2.803-36.376C13.797 3.27 28.528-3.786 38.388 1.906c9.86 5.693 11.116 21.98 2.804 36.376z"/><path d="M32.193 0h1.14v56H17L32.193 0z"/></g><path fill="#E4002B" d="M33 0h169v56H33z"/><g clip-path="url(#clip1_220_16699)" fill="#E4002B"><path d="M193.477 17.718c8.311-14.396 23.042-21.452 32.902-15.76 9.86 5.693 11.115 21.978 2.804 36.375-8.312 14.396-23.043 21.452-32.903 15.76-9.86-5.694-11.115-21.979-2.803-36.375z"/><path d="M203.14 55.999h-1.141V0h16.333L203.14 55.999z"/></g><defs><clipPath id="clip0_220_16699"><path fill="#fff" d="M0 0h33v56H0z"/></clipPath><clipPath id="clip1_220_16699"><path fill="#fff" transform="translate(202)" d="M0 0h33v55.999H0z"/></clipPath></defs></svg>