<svg width="221" height="44" viewBox="0 0 221 44" fill="none" xmlns="http://www.w3.org/2000/svg"><g clip-path="url(#clip0_220_16669)" fill="#fff"><path d="M32.365 30.082C25.835 41.394 14.26 46.937 6.512 42.465c-7.747-4.473-8.733-17.269-2.202-28.58C10.84 2.572 22.415-2.972 30.162 1.501c7.748 4.473 8.734 17.268 2.203 28.58z"/><path d="M25.092 0H26v44H13L25.092 0z"/></g><path fill="#fff" d="M26 0h169v44H26z"/><g clip-path="url(#clip1_220_16669)" fill="#fff"><path d="M188.299 13.918c6.531-11.312 18.106-16.856 25.853-12.383 7.747 4.473 8.733 17.269 2.202 28.58-6.53 11.312-18.105 16.856-25.852 12.383-7.747-4.473-8.734-17.269-2.203-28.58z"/><path d="M195.897 44h-.896V0h12.833l-11.937 44z"/></g><defs><clipPath id="clip0_220_16669"><path fill="#fff" d="M0 0h26v44H0z"/></clipPath><clipPath id="clip1_220_16669"><path fill="#fff" transform="translate(195)" d="M0 0h26v44H0z"/></clipPath></defs></svg>